
<svg xmlns="http://www.w3.org/2000/svg" xmlns:xlink="http://www.w3.org/1999/xlink" viewBox="0 0 26 20" width="26" height="20" fill="none">
  <svg xmlns="http://www.w3.org/2000/svg" viewBox="0 0 448 512" width="20" height="20" fill="#fff" x="3" y="0" opacity="100%">
    <path d="M325.3 224H416C433.7 224 448 238.3 448 256C448 273.7 433.7 288 416 288H352L365.3 320H416C433.7 320 448 334.3 448 352C448 369.7 433.7 384 416 384H392L413.5 435.7C420.3 452 412.6 470.7 396.3 477.5C379.1 484.3 361.3 476.6 354.5 460.3L322.7 384H125.3L93.54 460.3C86.74 476.6 68.01 484.3 51.69 477.5C35.38 470.7 27.66 452 34.46 435.7L56 384H32C14.33 384 0 369.7 0 352C0 334.3 14.33 320 32 320H82.67L96 288H32C14.33 288 0 273.7 0 256C0 238.3 14.33 224 32 224H122.7L194.5 51.69C199.4 39.77 211.1 32 224 32C236.9 32 248.6 39.77 253.5 51.69L325.3 224zM256 224L223.1 147.2L191.1 224H256zM165.3 288L151.1 320H296L282.7 288H165.3z"></path>
  </svg>
  <defs>
    <filter id="filter_dshadow_0_0_0_00000014" color-interpolation-filters="sRGB" filterUnits="userSpaceOnUse">
      <feFlood flood-opacity="0" result="bg-fix"></feFlood>
      <feColorMatrix in="SourceAlpha" type="matrix" values="0 0 0 0 0 0 0 0 0 0 0 0 0 0 0 0 0 0 127 0" result="alpha"></feColorMatrix>
      <feOffset dx="0" dy="0"></feOffset>
      <feGaussianBlur stdDeviation="0"></feGaussianBlur>
      <feComposite in2="alpha" operator="out"></feComposite>
      <feColorMatrix type="matrix" values="0 0 0 0 0 0 0 0 0 0  0 0 0 0 0 0 0 0 0.08 0"></feColorMatrix>
      <feBlend mode="normal" in2="bg-fix" result="bg-fix-filter_dshadow_0_0_0_00000014"></feBlend>
      <feBlend in="SourceGraphic" in2="bg-fix-filter_dshadow_0_0_0_00000014" result="shape"></feBlend>
    </filter>
  </defs>
</svg>